<?xml version="1.0" encoding="UTF-8"?>
<svg version="1.1" viewBox="0 0 1600 1600" width="1280" height="1280" xmlns="http://www.w3.org/2000/svg">
<path transform="translate(798 421)" d="m0 0c2.63 1.1 3.89 3 5.6 5.21 2.16 2.58 4.74 4.5 7.36 6.62 2.38 2.19 2.38 2.19 4 4v2c0.99 0.33 1.98 0.66 3 1 1.33 1.67 2.67 3.33 4 5 1.83 1.61 3.7 3.15 5.61 4.67 0.459 0.44 0.918 0.879 1.39 1.33v2c0.99 0.33 1.98 0.66 3 1 1.69 1.98 3.35 3.98 5 6 0.99 0.66 1.98 1.32 3 2v2c0.99 0.33 1.98 0.66 3 1 1.34 1.66 2.67 3.33 4 5 0.969 0.804 1.94 1.61 2.94 2.44 3.06 2.56 3.06 2.56 5.5 5.5 2.53 3.02 5.14 5.33 8.21 7.77 0.447 0.428 0.895 0.856 1.36 1.3v2c0.99 0.33 1.98 0.66 3 1 1.34 1.66 2.67 3.33 4 5 0.969 0.804 1.94 1.61 2.94 2.44 2.27 1.9 3.88 3.44 5.69 5.69 2.03 2.46 3.85 4.01 6.38 5.88v2c0.99 0.33 1.98 0.66 3 1v2c0.99 0.33 1.98 0.66 3 1 1.75 1.31 1.75 1.31 3 3-0.533 3.17-1.77 6.08-2.94 9.06-7.47 20.7-5.39 43.2 3.47 63.1 8.45 16.1 23.4 28.9 36.1 41.6 0.84 0.843 1.68 1.69 2.54 2.55 4.44 4.45 8.88 8.9 13.3 13.3 4.57 4.57 9.12 9.15 13.7 13.7 3.53 3.55 7.06 7.08 10.6 10.6 1.68 1.69 3.36 3.37 5.04 5.07 2.35 2.37 4.71 4.73 7.07 7.08 0.679 0.688 1.36 1.38 2.06 2.09 7.08 7.02 15.1 12.6 24 17 0.683 0.337 1.37 0.674 2.07 1.02 17.1 8.19 36.9 9.07 55 3.73 2.69-1.03 5.31-2.1 7.91-3.33 2.58-0.832 3.55-0.6 6.09 0.328 2.01 1.64 2.01 1.64 4.16 3.8 1.23 1.23 1.23 1.23 2.49 2.48 0.893 0.903 1.79 1.81 2.7 2.74 0.956 0.956 1.91 1.91 2.87 2.87 2.6 2.59 5.18 5.2 7.77 7.8 2.7 2.72 5.41 5.43 8.12 8.15 5.13 5.14 10.3 10.3 15.4 15.4 5.83 5.86 11.7 11.7 17.5 17.6 12 12 24 24.1 36 36.2-1.49 3.48-3.48 5.73-6.15 8.4-0.877 0.882-1.75 1.76-2.66 2.67-0.982 0.976-1.96 1.95-2.94 2.93-1.04 1.04-2.08 2.09-3.12 3.13-2.88 2.88-5.76 5.76-8.64 8.63-3.13 3.12-6.25 6.25-9.38 9.38-5.48 5.49-11 11-16.5 16.5-8.16 8.15-16.3 16.3-24.5 24.5-13.7 13.7-27.4 27.4-41.2 41.1-13.6 13.6-27.2 27.2-40.8 40.8-0.844 0.844-1.69 1.69-2.56 2.56-4.29 4.29-8.57 8.57-12.9 12.9-30.4 30.4-60.8 60.8-91.2 91.1-29.5 29.5-59.1 59-88.6 88.5-0.91 0.909-1.82 1.82-2.76 2.76-9.13 9.13-18.3 18.3-27.4 27.4-18.6 18.6-37.2 37.2-55.8 55.8-0.856 0.855-1.71 1.71-2.59 2.59-57.2 57.1-114 114-172 171-3.52-1.56-5.32-3.46-7.71-6.49-1.37-1.71-1.37-1.71-3.79-3.51-2.96-2.37-5.11-5.07-7.5-8-2.85-3.01-5.85-5.75-9-8.44-2.44-2.1-4.62-4.17-6.62-6.69-2.1-2.54-4.22-4.43-6.78-6.47-2.5-2.2-4.57-4.75-6.74-7.29-4.01-4.58-8.29-8.93-13-12.7-3.02-2.55-5.32-5.31-7.81-8.38-1.66-1.68-3.32-3.34-5-5-1.04-1.05-2.08-2.1-3.12-3.16-1.11-1.11-2.21-2.23-3.32-3.34-0.547-0.556-1.09-1.11-1.66-1.68-2.55-2.56-5.06-4.95-7.88-7.22-2.31-1.98-4.06-3.73-5.99-6.02-4.93-5.69-10.3-11-15.6-16.3-1.17-1.17-2.35-2.35-3.52-3.52-3.21-3.21-6.42-6.42-9.63-9.63-3.47-3.47-6.94-6.93-10.4-10.4-6-6-12-12-18-18-8.68-8.67-17.4-17.3-26-26-14.1-14.1-28.2-28.2-42.2-42.2-13.7-13.7-27.4-27.3-41-41-0.843-0.843-1.69-1.69-2.56-2.56-4.23-4.23-8.46-8.46-12.7-12.7-35.1-35.1-70.2-70.2-105-105 1.13-3.4 2.1-4.15 4.81-6.38 3.15-2.65 5.64-5.39 8.19-8.62h2c0.66-1.32 1.32-2.64 2-4h2c0.33-0.99 0.66-1.98 1-3h2c0.205-0.529 0.41-1.06 0.621-1.6 1.96-3.41 4.68-5.98 7.45-8.72 0.932-0.937 0.932-0.937 1.88-1.89 2.05-2.06 4.11-4.11 6.17-6.17 1.43-1.43 2.85-2.86 4.28-4.29 2.99-2.99 5.98-5.98 8.98-8.97 3.85-3.84 7.69-7.68 11.5-11.5 2.94-2.95 5.89-5.9 8.84-8.84 1.42-1.42 2.83-2.83 4.25-4.25 1.97-1.98 3.95-3.95 5.93-5.92 0.588-0.592 1.18-1.18 1.78-1.79 4.06-4.02 4.06-4.02 6.29-4.02 0.66-1.32 1.32-2.64 2-4h2c0.33-0.99 0.66-1.98 1-3h2c0.66-1.32 1.32-2.64 2-4h2c0.227-0.552 0.454-1.1 0.688-1.67 1.7-3.02 3.86-5.14 6.31-7.58 0.887-0.892 1.77-1.78 2.69-2.7 2.31-2.05 2.31-2.05 4.31-2.05 0.66-1.32 1.32-2.64 2-4h2c0.33-0.99 0.66-1.98 1-3h2v-2c1.64-1.59 1.64-1.59 3.81-3.38 2.25-1.86 4.09-3.49 5.82-5.85 0.45-0.585 0.9-1.17 1.36-1.77h2c0.268-0.639 0.536-1.28 0.812-1.94 1.19-2.06 1.19-2.06 4.19-3.06 1.21-2 1.21-2 2-4h2c0.33-0.99 0.66-1.98 1-3h2c0.66-1.32 1.32-2.64 2-4h2c0.268-0.598 0.536-1.2 0.812-1.81 1.19-2.19 2.28-3.6 4.19-5.19h2c0.268-0.598 0.536-1.2 0.812-1.81 1.19-2.19 2.28-3.6 4.19-5.19h2c0.26-0.598 0.521-1.2 0.789-1.81 1.3-2.35 2.51-3.51 4.59-5.19 5.39-4.55 10.3-9.57 15.2-14.6 1.38-1.39 2.77-2.76 4.16-4.14 2.26-2.19 2.26-2.19 3.93-4.59 0.433-0.557 0.866-1.11 1.31-1.69h2v-2c1.57-1.55 1.57-1.55 3.69-3.31 3.26-2.77 6.33-5.62 9.31-8.69 1.67-1.67 3.33-3.33 5-5 2.26-2.27 4.53-4.53 6.79-6.8 1.4-1.4 2.8-2.81 4.2-4.21 0.747-0.749 1.49-1.5 2.26-2.27 33.4-33.5 66.9-67 100-100 0.557-0.558 1.11-1.12 1.69-1.69 12.1-12.1 24.2-24.2 36.3-36.4 5.93-5.94 11.9-11.9 17.8-17.8 0.59-0.591 1.18-1.18 1.79-1.79 19.2-19.2 38.3-38.4 57.4-57.5 19.7-19.7 39.4-39.4 59-59.1 2.78-2.78 5.56-5.56 8.33-8.34 0.547-0.547 1.09-1.09 1.66-1.66 8.81-8.82 17.6-17.6 26.4-26.5 8.84-8.87 17.7-17.7 26.5-26.6 4.8-4.8 9.6-9.6 14.4-14.4 4.37-4.4 8.76-8.79 13.2-13.2 1.59-1.59 3.18-3.19 4.77-4.79 2.14-2.16 4.3-4.31 6.46-6.45 0.623-0.637 1.25-1.27 1.89-1.93 4.25-4.16 4.25-4.16 6.81-3.94zm-137 325c-1.71 1.7-3.42 3.39-5.14 5.08-2.52 2.48-5.03 4.97-7.53 7.46-0.757 0.74-1.51 1.48-2.3 2.24-12.2 12.2-18.6 26.2-18.5 43.5 0.228 13.8 4.98 25 14.4 35.1 0.515 0.553 1.03 1.11 1.56 1.68 7.16 7.62 14.6 15 22 22.3 1.49 1.48 2.97 2.96 4.46 4.45 3.59 3.58 7.19 7.16 10.8 10.7-4.18 4.99-8.53 9.67-13.1 14.2-0.986 0.984-0.986 0.984-1.99 1.99-2.08 2.07-4.16 4.14-6.23 6.2-1.42 1.41-2.84 2.83-4.25 4.24-3.45 3.44-6.91 6.88-10.4 10.3-3.07-1.37-5.14-2.9-7.48-5.3-0.993-1.01-0.993-1.01-2.01-2.03-0.707-0.727-1.41-1.45-2.14-2.2-1.53-1.55-3.05-3.1-4.58-4.64-2.39-2.43-4.77-4.86-7.15-7.3-16.2-16.5-30.4-29.9-54.5-31.8-26.6 0.923-42 19.9-59.4 37.3-1.76 1.75-3.53 3.5-5.31 5.24-2.6 2.55-5.18 5.12-7.76 7.69-0.784 0.767-1.57 1.53-2.38 2.32-12 12.1-17.6 25.8-17.6 42.7 0.414 25.4 20.2 41.1 36.9 57.7 1.6 1.59 3.19 3.18 4.79 4.78 3.88 3.87 7.76 7.73 11.6 11.6-4.4 5.29-9.07 10.1-14 15-1.54 1.52-3.09 3.04-4.63 4.57-2.4 2.37-4.81 4.73-7.22 7.08-14.1 13.8-27 27.1-27.4 47.9-0.135 16.8 4.44 29.5 16.2 41.8 1.84 1.86 3.69 3.71 5.56 5.55 1 1 2 2 3 3 2.08 2.08 4.17 4.16 6.26 6.22 2.66 2.63 5.3 5.28 7.94 7.93 2.06 2.06 4.12 4.12 6.19 6.17 0.977 0.973 1.95 1.95 2.93 2.92 13 13 26.4 21.3 45.1 22 14.9-0.16 27.9-6.96 38.8-16.7 1.55-1.4 1.55-1.4 1.33-3.48 0.99-0.33 1.98-0.66 3-1v-2c1.32-0.66 2.64-1.32 4-2v-2c0.99-0.33 1.98-0.66 3-1v-2c1.32-0.66 2.64-1.32 4-2v-2c0.99-0.33 1.98-0.66 3-1v-2c0.595-0.271 1.19-0.542 1.8-0.821 2.17-1.17 3.6-2.32 5.33-4.05 0.86-0.853 0.86-0.853 1.74-1.72 0.599-0.608 1.2-1.22 1.81-1.84 0.62-0.627 1.24-1.25 1.88-1.9 12.8-13.1 22-26 22.9-45-0.661-18.9-9.49-32.6-22.4-45.7-0.734-0.753-1.47-1.51-2.22-2.28-2.44-2.5-4.89-4.98-7.34-7.47-0.798-0.812-1.6-1.62-2.42-2.46-0.75-0.751-1.5-1.5-2.27-2.27-0.674-0.678-1.35-1.36-2.04-2.05-1.58-1.68-1.58-1.68-3.7-1.46-0.33-0.99-0.66-1.98-1-3h-2c-0.66-1.32-1.32-2.64-2-4h-2c-0.289-0.639-0.578-1.28-0.875-1.94-0.953-2.21-0.953-2.21-3.12-3.06-0.33-0.99-0.66-1.98-1-3 0.557-0.227 1.11-0.454 1.69-0.688 3.85-2.19 6.55-5.34 9.25-8.81 2.06-2.5 2.06-2.5 5-4.94 3.14-2.47 3.14-2.47 5.56-5.56 2.59-3.11 5.4-5.42 8.5-8 0.896-1.07 1.77-2.15 2.62-3.25 2.38-2.75 2.38-2.75 4.28-3.63 2.09-0.118 2.09-0.118 3.99 1.19 0.654 0.674 1.31 1.35 1.98 2.04 0.748 0.758 1.5 1.52 2.27 2.3 0.801 0.836 1.6 1.67 2.43 2.53 0.836 0.85 1.67 1.7 2.53 2.58 2.69 2.73 5.35 5.48 8.02 8.24 2.65 2.72 5.3 5.44 7.96 8.15 1.66 1.69 3.3 3.38 4.94 5.09 11.8 12 24.9 19.6 42 20.8 13.4 0.136 24.2-4.35 35-12 1.14-0.787 1.14-0.787 2.31-1.59 0.557-0.465 1.11-0.931 1.69-1.41v-2c0.584-0.26 1.17-0.519 1.77-0.787 2.39-1.3 3.97-2.7 5.9-4.62 1.05-1.04 1.05-1.04 2.12-2.1 0.745-0.749 1.49-1.5 2.26-2.27 0.771-0.769 1.54-1.54 2.34-2.33 1.63-1.62 3.25-3.25 4.87-4.88 2.49-2.5 4.99-4.99 7.5-7.49 1.58-1.58 3.15-3.16 4.73-4.74 1.13-1.12 1.13-1.12 2.28-2.27 0.688-0.694 1.38-1.39 2.08-2.1 0.61-0.611 1.22-1.22 1.85-1.85 1.52-1.47 1.52-1.47 1.3-3.56h2c10.7-12.9 15.4-27.2 14-44-1.67-11.9-7-22.2-15.2-30.9-0.514-0.55-1.03-1.1-1.56-1.67-6.95-7.38-14.2-14.5-21.4-21.6-2.79-2.76-5.57-5.53-8.36-8.29-0.953-0.94-0.953-0.94-1.93-1.9-4.42-4.39-4.42-4.39-5.53-6.62 0.99-0.33 1.98-0.66 3-1v-2c0.598-0.268 1.2-0.536 1.81-0.812 2.19-1.19 3.6-2.28 5.19-4.19v-2c0.99-0.33 1.98-0.66 3-1v-2c0.99-0.33 1.98-0.66 3-1v-2c0.541-0.217 1.08-0.433 1.64-0.656 3.18-1.81 5.57-4.26 8.11-6.84 0.76-0.748 0.76-0.748 1.54-1.51 2.84-2.52 2.84-2.52 3.71-5.99 0.99-0.33 1.98-0.66 3-1 0.743-0.773 0.743-0.773 1.5-1.56 1.5-1.44 1.5-1.44 4.5-1.44 1.51 1.43 1.51 1.43 3.14 3.44 4 4.77 8.28 9.17 12.7 13.6 0.762 0.775 1.52 1.55 2.31 2.35 0.729 0.731 1.46 1.46 2.21 2.21 0.657 0.661 1.31 1.32 1.99 2 1.56 1.65 1.56 1.65 3.68 1.43 0.242 0.563 0.485 1.13 0.734 1.71 6.27 11.4 21.6 21.2 33.7 24.7 16 2.69 30.7 1.21 44.2-8.09 1.44-1.09 2.88-2.2 4.31-3.31 1.49-0.99 1.49-0.99 3-2v-2c0.584-0.26 1.17-0.519 1.77-0.787 2.39-1.3 3.97-2.7 5.9-4.62 1.05-1.04 1.05-1.04 2.12-2.1 0.745-0.749 1.49-1.5 2.26-2.27 1.16-1.15 1.16-1.15 2.34-2.33 1.63-1.62 3.25-3.25 4.87-4.88 2.49-2.5 4.99-4.99 7.5-7.49 1.58-1.58 3.15-3.16 4.73-4.74 1.13-1.12 1.13-1.12 2.28-2.27 0.688-0.694 1.38-1.39 2.08-2.1 0.61-0.611 1.22-1.22 1.85-1.85 1.52-1.47 1.52-1.47 1.3-3.56h2c1.57-1.88 2.98-3.74 4.38-5.75 0.606-0.875 0.606-0.875 1.22-1.77 7.85-11.8 9.97-25.7 7.94-39.6-2.29-10.2-6.39-18.9-13.6-26.6-0.771-0.823-0.771-0.823-1.56-1.66-6.9-7.32-14-14.5-21.1-21.6-2.4-2.41-4.79-4.83-7.17-7.25-1.55-1.56-3.11-3.12-4.66-4.68-0.698-0.711-1.4-1.42-2.12-2.15-6.86-6.83-14.2-12.7-23.5-15.8-1.13-0.389-2.26-0.779-3.42-1.18-12.9-3.58-26.4-2.42-38.6 3.18-13.4 7.58-23.8 19.6-34.5 30.4-1.68 1.69-3.37 3.39-5.05 5.08-4.09 4.11-8.18 8.23-12.3 12.4-3.17-1.4-5.27-3.04-7.69-5.51-1.06-1.08-1.06-1.08-2.15-2.18-0.757-0.777-1.51-1.55-2.29-2.35-1.63-1.65-3.26-3.3-4.88-4.94-2.55-2.59-5.1-5.19-7.64-7.79-2.46-2.51-4.94-5.02-7.41-7.52-0.745-0.767-1.49-1.53-2.26-2.32-12.2-12.3-26.1-20.2-43.7-20.6-26.3 0.786-41.4 19.4-58.8 36.7z" fill="#000002"/>
<path transform="translate(830,300)" d="m0 0c2.07 1.78 4.08 3.58 6.06 5.45 0.84 0.784 0.84 0.784 1.7 1.58 6.23 5.84 12.3 11.8 18.3 17.9 1.19 1.19 2.38 2.38 3.58 3.57 2.47 2.46 4.93 4.92 7.39 7.39 3.16 3.16 6.33 6.32 9.5 9.47 2.45 2.44 4.89 4.88 7.34 7.32 1.17 1.17 2.34 2.33 3.51 3.5 1.62 1.61 3.24 3.23 4.85 4.85 0.92 0.919 1.84 1.84 2.79 2.78 1.96 2.21 1.96 2.21 1.96 4.21 0.99 0.33 1.98 0.66 3 1v2c1.32 0.66 2.64 1.32 4 2v2c0.99 0.33 1.98 0.66 3 1v2c1.32 0.66 2.64 1.32 4 2v2c0.564 0.239 1.13 0.478 1.71 0.724 2.79 1.55 4.71 3.43 6.97 5.69 0.921 0.914 1.84 1.83 2.79 2.77 0.996 0.999 1.99 2 2.99 3 1.03 1.02 2.05 2.05 3.08 3.07 2.14 2.14 4.29 4.29 6.43 6.44 2.75 2.76 5.5 5.51 8.26 8.25 2.12 2.11 4.23 4.23 6.34 6.34 1.01 1.02 2.03 2.03 3.05 3.04 1.42 1.41 2.83 2.83 4.24 4.25 0.805 0.807 1.61 1.61 2.44 2.44 1.72 1.97 1.72 1.97 1.72 3.97h2c2.16 2.2 4.05 4.62 6 7-4.24 5.07-8.68 9.81-13.4 14.5-1.02 1.02-1.02 1.02-2.06 2.06-2.15 2.14-4.3 4.28-6.45 6.42-1.47 1.46-2.93 2.92-4.4 4.38-3.57 3.56-7.15 7.12-10.7 10.7-3.31-1.44-5.48-3.24-8.02-5.8-0.79-0.792-1.58-1.58-2.4-2.4-0.858-0.87-1.72-1.74-2.6-2.64-1.4-1.41-2.8-2.81-4.2-4.22-1.5-1.51-3-3.02-4.5-4.54-3.13-3.16-6.27-6.32-9.41-9.47-7.8-7.84-15.6-15.7-23.4-23.5-6.05-6.09-12.1-12.2-18.2-18.3-3.11-3.13-6.22-6.26-9.32-9.4-2.4-2.42-4.81-4.84-7.22-7.25-0.846-0.86-1.69-1.72-2.56-2.61-7.1-7.09-14.6-13.4-24.1-16.8-1.6-0.584-1.6-0.584-3.24-1.18-13.4-4.39-28-2.71-40.6 3.34-10.8 6.03-19.4 15.6-28.1 24.3-1.05 1.05-2.1 2.1-3.15 3.15-2.88 2.87-5.75 5.74-8.62 8.61-3.13 3.13-6.26 6.26-9.4 9.38-6.21 6.2-12.4 12.4-18.6 18.6-7.43 7.43-14.9 14.9-22.3 22.3-18 17.9-35.9 35.9-53.9 53.8-8.5 8.49-17 17-25.5 25.5-29.1 29.1-58.2 58.1-87.2 87.2-1.82 1.82-3.65 3.65-5.47 5.47-0.905 0.904-1.81 1.81-2.74 2.74-4.58 4.58-9.17 9.16-13.8 13.7-0.91 0.909-1.82 1.82-2.76 2.76-29.5 29.5-59 59-88.6 88.5-31.2 31.2-62.4 62.4-93.6 93.6-3.42 3.42-6.85 6.85-10.3 10.3-0.843 0.843-1.69 1.69-2.56 2.55-13.6 13.6-27.2 27.1-40.7 40.7-13.6 13.6-27.3 27.3-40.9 40.9-8.1 8.1-16.2 16.2-24.3 24.3-5.42 5.41-10.8 10.8-16.2 16.2-3.08 3.09-6.16 6.17-9.26 9.25-2.82 2.8-5.62 5.61-8.42 8.43-1 1.01-2.01 2.01-3.03 3.01-12.4 12.3-21.5 26.7-22.3 44.5 0.288 13.7 5.26 26.8 14.6 36.7 0.786 0.843 0.786 0.843 1.59 1.7 6.85 7.3 13.9 14.4 21 21.4 1.57 1.57 3.14 3.15 4.71 4.72 4.28 4.29 8.57 8.58 12.9 12.9 4.16 4.16 8.31 8.32 12.5 12.5 11.1 11.1 22.2 22.3 33.3 33.4 5.26 5.27 10.5 10.5 15.8 15.8 18 18 36.1 36.1 54.1 54.1 1.13 1.13 2.26 2.26 3.39 3.39 0.56 0.56 1.12 1.12 1.7 1.7 2.84 2.84 5.68 5.68 8.51 8.52 0.563 0.563 1.13 1.13 1.71 1.71 18.3 18.3 36.6 36.6 54.8 54.9 19.3 19.4 38.7 38.7 58 58.1 2.12 2.13 4.25 4.25 6.37 6.38 0.785 0.785 0.785 0.785 1.59 1.59 8.41 8.41 16.8 16.8 25.2 25.2 8.44 8.46 16.9 16.9 25.3 25.4 4.58 4.57 9.15 9.15 13.7 13.7 4.18 4.2 8.37 8.39 12.6 12.6 1.51 1.51 3.03 3.03 4.53 4.55 13 13.1 26.3 24.9 45.7 25.2 16.9 0.0616 30.2-4.6 42.7-16.2 1.34-1.66 2.68-3.33 4-5 1.11-1.03 2.26-2.04 3.44-3 3.95-3.37 7.64-6.96 11.3-10.6 0.555-0.55 1.11-1.1 1.68-1.67 3.08-3.09 5.84-6.29 8.57-9.71 1.11-1.03 2.26-2.04 3.44-3 3.95-3.37 7.64-6.96 11.3-10.6 0.555-0.55 1.11-1.1 1.68-1.67 3.08-3.09 5.84-6.29 8.57-9.71 1.11-1.03 2.26-2.04 3.44-3 3.95-3.37 7.64-6.96 11.3-10.6 0.555-0.55 1.11-1.1 1.68-1.67 3.08-3.09 5.84-6.29 8.57-9.71 1.11-1.03 2.26-2.04 3.44-3 3.95-3.37 7.64-6.96 11.3-10.6 0.555-0.55 1.11-1.1 1.68-1.67 3.08-3.09 5.84-6.29 8.57-9.71 1.11-1.03 2.26-2.04 3.44-3 3.95-3.37 7.64-6.96 11.3-10.6 0.555-0.55 1.11-1.1 1.68-1.67 3.08-3.09 5.84-6.29 8.57-9.71 1.11-1.03 2.26-2.04 3.44-3 3.95-3.37 7.64-6.96 11.3-10.6 0.555-0.55 1.11-1.1 1.68-1.67 3.08-3.09 5.84-6.29 8.57-9.71 1.11-1.03 2.26-2.04 3.44-3 3.95-3.37 7.64-6.96 11.3-10.6 0.555-0.55 1.11-1.1 1.68-1.67 3.08-3.09 5.84-6.29 8.57-9.71 1.11-1.03 2.26-2.04 3.44-3 3.95-3.37 7.64-6.96 11.3-10.6 0.555-0.55 1.11-1.1 1.68-1.67 3.08-3.09 5.84-6.29 8.57-9.71 1.11-1.03 2.26-2.04 3.44-3 3.95-3.37 7.64-6.96 11.3-10.6 0.555-0.55 1.11-1.1 1.68-1.67 3.08-3.09 5.84-6.29 8.57-9.71 1.11-1.03 2.26-2.04 3.44-3 3.95-3.37 7.64-6.96 11.3-10.6 0.555-0.55 1.11-1.1 1.68-1.67 3.08-3.09 5.84-6.29 8.57-9.71 1.11-1.03 2.26-2.04 3.44-3 3.95-3.37 7.64-6.96 11.3-10.6 0.555-0.55 1.11-1.1 1.68-1.67 3.08-3.09 5.84-6.29 8.57-9.71 1.11-1.03 2.26-2.04 3.44-3 3.95-3.37 7.64-6.96 11.3-10.6 0.555-0.55 1.11-1.1 1.68-1.67 3.08-3.09 5.84-6.29 8.57-9.71 1.11-1.03 2.26-2.04 3.44-3 3.95-3.37 7.64-6.96 11.3-10.6 0.555-0.55 1.11-1.1 1.68-1.67 3.08-3.09 5.84-6.29 8.57-9.71 1.11-1.03 2.26-2.04 3.44-3 3.95-3.37 7.64-6.96 11.3-10.6 0.555-0.55 1.11-1.1 1.68-1.67 3.08-3.09 5.84-6.29 8.57-9.71 1.11-1.03 2.26-2.04 3.44-3 3.95-3.37 7.64-6.96 11.3-10.6 0.555-0.55 1.11-1.1 1.68-1.67 3.08-3.09 5.84-6.29 8.57-9.71 1.11-1.03 2.26-2.04 3.44-3 3.95-3.37 7.64-6.96 11.3-10.6 0.555-0.55 1.11-1.1 1.68-1.67 3.08-3.09 5.84-6.29 8.57-9.71 1.11-1.03 2.26-2.04 3.44-3 3.95-3.37 7.64-6.96 11.3-10.6 0.555-0.55 1.11-1.1 1.68-1.67 3.08-3.09 5.84-6.29 8.57-9.71 1.11-1.03 2.26-2.04 3.44-3 3.95-3.37 7.64-6.96 11.3-10.6 0.555-0.55 1.11-1.1 1.68-1.67 3.08-3.09 5.84-6.29 8.57-9.71 1.11-1.03 2.26-2.04 3.44-3 3.95-3.37 7.64-6.96 11.3-10.6 0.555-0.55 1.11-1.1 1.68-1.67 3.08-3.09 5.84-6.29 8.57-9.71 1.11-1.03 2.26-2.04 3.44-3 3.95-3.37 7.64-6.96 11.3-10.6 0.555-0.55 1.11-1.1 1.68-1.67 3.08-3.09 5.84-6.29 8.57-9.71 1.11-1.03 2.26-2.04 3.44-3 3.95-3.37 7.64-6.96 11.3-10.6 0.555-0.55 1.11-1.1 1.68-1.67 3.08-3.09 5.84-6.29 8.57-9.71 1.11-1.03 2.26-2.04 3.44-3 3.95-3.37 7.64-6.96 11.3-10.6 0.555-0.55 1.11-1.1 1.68-1.67 3.08-3.09 5.84-6.29 8.57-9.71 1.11-1.03 2.26-2.04 3.44-3 3.95-3.37 7.64-6.96 11.3-10.6 0.555-0.55 1.11-1.1 1.68-1.67 2.31-2.31 4.47-4.57 6.46-7.17 1.8-2.16 3.49-3.8 5.61-5.61 5.21-4.46 10-9.31 14.9-14.2 1.58-1.59 3.17-3.17 4.75-4.75 1.01-1.01 2.02-2.02 3.03-3.03 0.907-0.909 1.81-1.82 2.75-2.75 2.13-2.04 2.13-2.04 3.1-4.23h2c0.269-0.562 0.539-1.12 0.816-1.7 1.26-2.44 2.67-4.72 4.12-7.05 2.59-4.31 4.62-8.43 6.06-13.2 0.205-0.673 0.41-1.35 0.621-2.04 3.67-13.9 1.18-28.2-5.61-40.8-8.38-13.3-22.1-24.4-33.2-35.5-2.46-2.46-4.93-4.92-7.39-7.38-4.64-4.64-9.28-9.27-13.9-13.9-5.3-5.28-10.6-10.6-15.9-15.9-10.9-10.9-21.7-21.7-32.6-32.6 1.48-3.11 2.99-5.23 5.44-7.67 0.701-0.7 1.4-1.4 2.12-2.12 1.13-1.12 1.13-1.12 2.29-2.26 0.774-0.771 1.55-1.54 2.35-2.34 2.47-2.46 4.95-4.91 7.43-7.37 1.68-1.67 3.35-3.34 5.03-5 4.11-4.09 8.22-8.17 12.3-12.2 1.94 0.812 1.94 0.812 4 2 0.33 0.99 0.66 1.98 1 3 1.33 0.673 2.66 1.34 4 2 1.78 1.59 3.5 3.25 5.19 4.93 0.51 0.507 1.02 1.01 1.54 1.54 1.71 1.7 3.4 3.4 5.1 5.11 1.22 1.22 2.44 2.44 3.67 3.66 3.32 3.31 6.63 6.62 9.94 9.94 3.46 3.47 6.93 6.93 10.4 10.4 5.82 5.81 11.6 11.6 17.4 17.5 6.73 6.74 13.5 13.5 20.2 20.2 5.78 5.77 11.6 11.5 17.3 17.3 3.45 3.45 6.9 6.9 10.4 10.4 3.25 3.24 6.49 6.48 9.72 9.73 1.19 1.19 2.38 2.39 3.58 3.58 1.62 1.62 3.24 3.24 4.86 4.87 0.909 0.91 1.82 1.82 2.76 2.76 1.93 2.18 1.93 2.18 1.93 4.18 0.99 0.33 1.98 0.66 3 1 1.6 1.95 3.03 3.86 4.44 5.94 0.4 0.588 0.801 1.18 1.21 1.78 7.53 11.3 11.2 24.5 8.63 38.1-2.91 13.1-7.8 23.4-17.3 33.2h-2c-0.266 0.592-0.531 1.18-0.805 1.79-1.23 2.26-2.48 3.72-4.31 5.52-0.607 0.601-1.21 1.2-1.84 1.82-0.633 0.616-1.27 1.23-1.92 1.87-0.938 0.924-0.938 0.924-1.89 1.87-1.21 1.19-2.42 2.37-3.63 3.55-1.33 1.31-2.63 2.66-3.92 4.02-1.68 1.56-1.68 1.56-3.68 1.56-0.33 0.99-0.66 1.98-1 3h-2c-0.33 0.99-0.66 1.98-1 3h-2c-0.33 0.99-0.66 1.98-1 3h-2c-0.33 0.99-0.66 1.98-1 3h-2l-0.781 1.81c-1.32 2.37-2.61 3.58-4.72 5.25-2.44 1.95-3.72 3.27-5.5 5.94h-2c-0.33 0.99-0.66 1.98-1 3h-2c-0.33 0.99-0.66 1.98-1 3h-2c-0.33 0.99-0.66 1.98-1 3h-2c-0.33 0.99-0.66 1.98-1 3h-2l-0.781 1.81c-1.32 2.37-2.61 3.58-4.72 5.25-2.44 1.95-3.72 3.27-5.5 5.94h-2c-0.33 0.99-0.66 1.98-1 3h-2c-0.33 0.99-0.66 1.98-1 3h-2c-0.33 0.99-0.66 1.98-1 3h-2c-0.33 0.99-0.66 1.98-1 3h-2c-0.247 0.619-0.495 1.24-0.75 1.88-1.48 2.51-2.69 2.89-5.25 4.12-0.33 0.99-0.66 1.98-1 3-1.94 2.19-1.94 2.19-4 4h-2c-0.33 0.99-0.66 1.98-1 3h-2c-0.33 0.99-0.66 1.98-1 3h-2c-0.33 0.99-0.66 1.98-1 3h-2c-0.33 0.99-0.66 1.98-1 3h-2c-0.247 0.619-0.495 1.24-0.75 1.88-1.48 2.51-2.69 2.89-5.25 4.12-0.33 0.99-0.66 1.98-1 3-1.94 2.19-1.94 2.19-4 4h-2c-0.33 0.99-0.66 1.98-1 3h-2c-0.33 0.99-0.66 1.98-1 3h-2c-0.33 0.99-0.66 1.98-1 3h-2c-0.33 0.99-0.66 1.98-1 3h-2c-0.247 0.619-0.495 1.24-0.75 1.88-1.48 2.51-2.69 2.89-5.25 4.12-0.33 0.99-0.66 1.98-1 3-1.94 2.19-1.94 2.19-4 4h-2c-0.33 0.99-0.66 1.98-1 3h-2c-0.33 0.99-0.66 1.98-1 3-1.65 1.36-3.31 2.69-5 4-0.33 0.66-0.66 1.32-1 2h-2c-0.66 1.32-1.32 2.64-2 4h-2v2c-1.65 1.35-3.32 2.68-5 4-0.66 0.99-1.32 1.98-2 3h-2c-0.33 0.99-0.66 1.98-1 3h-2c-0.33 0.99-0.66 1.98-1 3-1.65 1.36-3.31 2.69-5 4-0.33 0.66-0.66 1.32-1 2h-2c-0.66 1.32-1.32 2.64-2 4h-2v2c-1.65 1.35-3.32 2.68-5 4-0.66 0.99-1.32 1.98-2 3h-2c-0.33 0.99-0.66 1.98-1 3h-2c-0.33 0.99-0.66 1.98-1 3-1.65 1.36-3.31 2.69-5 4-0.33 0.66-0.66 1.32-1 2h-2v2c-1.46 1.23-2.92 2.45-4.41 3.64-2.19 1.88-3.83 4.08-5.59 6.36-2.12 2.31-2.12 2.31-4 4h-2c-0.33 0.99-0.66 1.98-1 3h-2c-0.33 0.99-0.66 1.98-1 3h-2c-0.33 0.99-0.66 1.98-1 3h-2c-0.247 0.619-0.495 1.24-0.75 1.88-1.48 2.51-2.69 2.89-5.25 4.12-0.33 0.99-0.66 1.98-1 3-1.94 2.19-1.94 2.19-4 4h-2c-0.33 0.99-0.66 1.98-1 3h-2c-0.33 0.99-0.66 1.98-1 3h-2c-0.33 0.99-0.66 1.98-1 3h-2c-0.33 0.99-0.66 1.98-1 3h-2c-0.247 0.619-0.495 1.24-0.75 1.88-1.48 2.51-2.69 2.89-5.25 4.12-0.33 0.99-0.66 1.98-1 3-1.94 2.19-1.94 2.19-4 4h-2c-0.33 0.99-0.66 1.98-1 3h-2c-0.33 0.99-0.66 1.98-1 3h-2c-0.33 0.99-0.66 1.98-1 3h-2c-0.33 0.99-0.66 1.98-1 3h-2c-0.247 0.619-0.495 1.24-0.75 1.88-1.48 2.51-2.69 2.89-5.25 4.12-0.33 0.99-0.66 1.98-1 3-1.94 2.19-1.94 2.19-4 4h-2c-0.33 0.99-0.66 1.98-1 3h-2c-0.33 0.99-0.66 1.98-1 3h-2c-0.33 0.99-0.66 1.98-1 3h-2c-0.33 0.99-0.66 1.98-1 3h-2c-0.247 0.619-0.495 1.24-0.75 1.88-1.48 2.51-2.69 2.89-5.25 4.12-0.33 0.99-0.66 1.98-1 3-1.94 2.19-1.94 2.19-4 4h-2c-0.33 0.99-0.66 1.98-1 3h-2c-0.33 0.99-0.66 1.98-1 3h-2c-0.33 0.99-0.66 1.98-1 3h-2c-0.33 0.99-0.66 1.98-1 3h-2c-0.247 0.619-0.495 1.24-0.75 1.88-1.48 2.51-2.69 2.89-5.25 4.12-0.33 0.99-0.66 1.98-1 3-1.94 2.19-1.94 2.19-4 4h-2c-0.33 0.99-0.66 1.98-1 3h-2c-0.33 0.99-0.66 1.98-1 3h-2c-0.33 0.99-0.66 1.98-1 3h-2c-0.33 0.99-0.66 1.98-1 3h-2c-0.247 0.619-0.495 1.24-0.75 1.88-1.48 2.51-2.69 2.89-5.25 4.12-0.33 0.99-0.66 1.98-1 3-1.94 2.19-1.94 2.19-4 4h-2c-0.33 0.99-0.66 1.98-1 3h-2c-0.33 0.99-0.66 1.98-1 3h-2c-0.33 0.99-0.66 1.98-1 3h-2c-0.33 0.99-0.66 1.98-1 3h-2c-0.247 0.619-0.495 1.24-0.75 1.88-1.48 2.51-2.69 2.89-5.25 4.12-0.33 0.99-0.66 1.98-1 3-1.94 2.19-1.94 2.19-4 4h-2c-0.33 0.99-0.66 1.98-1 3h-2c-0.33 0.99-0.66 1.98-1 3h-2c-0.33 0.99-0.66 1.98-1 3h-2c-0.33 0.99-0.66 1.98-1 3h-2c-0.247 0.619-0.495 1.24-0.75 1.88-1.48 2.51-2.69 2.89-5.25 4.12-0.33 0.99-0.66 1.98-1 3-1.94 2.19-1.94 2.19-4 4h-2c-0.33 0.99-0.66 1.98-1 3h-2c-0.33 0.99-0.66 1.98-1 3h-2c-0.33 0.99-0.66 1.98-1 3h-2c-0.33 0.99-0.66 1.98-1 3h-2c-0.247 0.619-0.495 1.24-0.75 1.88-1.48 2.51-2.69 2.89-5.25 4.12-0.33 0.99-0.66 1.98-1 3-1.94 2.19-1.94 2.19-4 4h-2c-0.33 0.99-0.66 1.98-1 3h-2c-0.33 0.99-0.66 1.98-1 3h-2c-0.33 0.99-0.66 1.98-1 3h-2c-0.33 0.99-0.66 1.98-1 3h-2c-0.247 0.619-0.495 1.24-0.75 1.88-1.48 2.51-2.69 2.89-5.25 4.12-0.33 0.99-0.66 1.98-1 3-1.94 2.19-1.94 2.19-4 4h-2c-0.33 0.99-0.66 1.98-1 3h-2c-0.33 0.99-0.66 1.98-1 3h-2c-0.33 0.99-0.66 1.98-1 3h-2c-0.33 0.99-0.66 1.98-1 3h-2c-0.247 0.619-0.495 1.24-0.75 1.88-1.48 2.51-2.69 2.89-5.25 4.12-0.33 0.99-0.66 1.98-1 3-1.94 2.19-1.94 2.19-4 4h-2c-0.33 0.99-0.66 1.98-1 3h-2c-0.33 0.99-0.66 1.98-1 3h-2c-0.33 0.99-0.66 1.98-1 3h-2c-0.33 0.99-0.66 1.98-1 3h-2c-0.247 0.619-0.495 1.24-0.75 1.88-1.48 2.51-2.69 2.89-5.25 4.12-0.33 0.99-0.66 1.98-1 3-1.94 2.19-1.94 2.19-4 4h-2c-0.33 0.99-0.66 1.98-1 3h-2c-0.33 0.99-0.66 1.98-1 3h-2c-0.33 0.99-0.66 1.98-1 3h-2c-0.33 0.99-0.66 1.98-1 3h-2c-0.247 0.619-0.495 1.24-0.75 1.88-1.48 2.51-2.69 2.89-5.25 4.12-0.33 0.99-0.66 1.98-1 3-1.94 2.19-1.94 2.19-4 4h-2c-0.33 0.99-0.66 1.98-1 3h-2c-0.33 0.99-0.66 1.98-1 3h-2c-0.33 0.99-0.66 1.98-1 3h-2c-0.227 0.557-0.454 1.11-0.688 1.69-1.69 2.97-3.78 5.03-6.31 7.31h-2c-0.33 0.99-0.66 1.98-1 3-1.94 2.19-1.94 2.19-4 4h-2c-0.33 0.99-0.66 1.98-1 3h-2c-0.33 0.99-0.66 1.98-1 3h-2c-0.26 0.584-0.519 1.17-0.787 1.77-1.3 2.39-2.71 3.98-4.62 5.9-0.992 0.996-0.992 0.996-2 2.01-0.69 0.682-1.38 1.36-2.09 2.07-0.69 0.697-1.38 1.39-2.09 2.11-0.661 0.659-1.32 1.32-2 2-0.605 0.603-1.21 1.21-1.83 1.83-1.57 1.31-1.57 1.31-3.57 1.31-0.33 0.99-0.66 1.98-1 3h-2c-0.227 0.557-0.454 1.11-0.688 1.69-1.69 2.97-3.78 5.03-6.31 7.31h-2c-0.66 1.32-1.32 2.64-2 4h-2v2c-1.65 1.35-3.32 2.68-5 4-0.66 0.99-1.32 1.98-2 3h-2c-0.33 0.99-0.66 1.98-1 3h-2c-0.33 0.99-0.66 1.98-1 3h-2c-0.26 0.584-0.519 1.17-0.787 1.77-1.3 2.39-2.71 3.98-4.62 5.9-0.992 0.996-0.992 0.996-2 2.01-0.69 0.682-1.38 1.36-2.09 2.07-0.69 0.697-1.38 1.39-2.09 2.11-0.661 0.659-1.32 1.32-2 2-0.605 0.603-1.21 1.21-1.83 1.83-1.57 1.31-1.57 1.31-3.57 1.31-0.33 0.99-0.66 1.98-1 3h-2l-0.746 1.73c-1.46 2.65-3.18 4.46-5.32 6.6-0.797 0.799-1.59 1.6-2.41 2.42-0.833 0.825-1.67 1.65-2.52 2.5-0.833 0.84-1.67 1.68-2.52 2.55-0.797 0.794-1.59 1.59-2.41 2.41-0.731 0.729-1.46 1.46-2.21 2.21-1.85 1.59-1.85 1.59-3.85 1.59-0.33 0.99-0.66 1.98-1 3h-2c-0.215 0.549-0.431 1.1-0.652 1.66-1.8 3.12-4.26 5.33-6.91 7.71-0.539 0.486-1.08 0.972-1.63 1.47-12.5 11.1-26.4 16.7-43.2 16-26.5-2.34-42.6-22.7-60.2-40.4-1.88-1.87-3.75-3.75-5.63-5.62-4.6-4.59-9.2-9.19-13.8-13.8-5.51-5.51-11-11-16.5-16.5-13.3-13.3-26.6-26.6-39.9-39.9-6.3-6.3-12.6-12.6-18.9-18.9-21.6-21.6-43.2-43.1-64.7-64.7-1.35-1.35-2.7-2.7-4.06-4.06-1.36-1.36-2.71-2.71-4.07-4.07-2.72-2.72-5.44-5.44-8.16-8.16-0.674-0.674-1.35-1.35-2.04-2.04-21.9-21.9-43.8-43.7-65.7-65.6-23.2-23.1-46.3-46.3-69.5-69.4-2.54-2.54-5.08-5.08-7.62-7.62-0.626-0.626-1.25-1.25-1.9-1.9-10.1-10.1-20.1-20.1-30.2-30.2-10.1-10.1-20.2-20.2-30.3-30.3-6-6.01-12-12-18-18-4.02-4.01-8.03-8.02-12-12-2.28-2.29-4.57-4.57-6.86-6.85-22.1-22-22.1-22-26.4-33.3-0.38-0.968-0.761-1.94-1.15-2.93-4.71-13.6-2.69-29.4 3.3-42.2 6.59-12.1 18.1-21.9 27.8-31.5 1.18-1.18 2.35-2.36 3.53-3.53 3.21-3.22 6.42-6.43 9.64-9.64 3.5-3.5 7-7.01 10.5-10.5 6.93-6.94 13.9-13.9 20.8-20.8 8.31-8.32 16.6-16.6 24.9-25 20.1-20.1 40.2-40.2 60.3-60.3 6.65-6.65 13.3-13.3 20-20 0.47-0.47 0.939-0.94 1.42-1.42 1.9-1.9 3.8-3.8 5.7-5.7 32.5-32.5 65-65 97.5-97.5 2.55-2.55 5.1-5.1 7.65-7.65 0.506-0.506 1.01-1.01 1.53-1.53 5.13-5.13 10.3-10.3 15.4-15.4 1.03-1.03 2.06-2.06 3.08-3.08 33-33 66-66.1 99-99.1 23.7-23.8 47.5-47.5 71.2-71.2 0.488-0.488 0.977-0.977 1.48-1.48 10.7-10.7 21.4-21.4 32.2-32.2 4.31-4.31 8.63-8.63 12.9-12.9 0.472-0.472 0.944-0.944 1.43-1.43 15.7-15.7 31.3-31.3 47-47 15.2-15.3 30.5-30.5 45.8-45.8 9.07-9.06 18.1-18.1 27.2-27.2 6.05-6.06 12.1-12.1 18.2-18.2 3.45-3.45 6.9-6.9 10.3-10.4 3.14-3.15 6.28-6.29 9.43-9.43 1.13-1.12 2.25-2.25 3.37-3.38 22.5-22.7 53-34.3 81.6-14.1z" fill="#000002"/>
<path transform="translate(1275 -.688)" d="m0 0c1.38 0.00518 2.76 0.0097 4.14 0.0136 21.4 0.0805 41.8 1.71 62.6 6.67 1.86 0.383 3.73 0.758 5.59 1.12 25 5.12 49.7 14.5 72.4 25.9 0.858 0.427 1.72 0.853 2.6 1.29 25 12.5 48.4 28.4 69 47.5 2.07 1.91 4.17 3.75 6.31 5.57 8.71 7.6 16.8 15.9 23.9 25 1.8 2.24 3.65 4.39 5.57 6.54 3.52 4 6.71 8.18 9.82 12.5 0.835 1.16 0.835 1.16 1.69 2.35 21.5 30.2 37.4 62.8 48.1 98.3 0.272 0.891 0.543 1.78 0.823 2.7 5.49 18.4 8.29 37.4 11.2 56.3 0.183 1.09 0.367 2.19 0.556 3.31 0.581 4.82 0.684 9.59 0.753 14.4 0.0153 1.04 0.0306 2.09 0.0464 3.16 0.306 25.7-0.882 50-6.35 75.1-0.281 1.33-0.562 2.66-0.842 3.98-10.3 48.1-30.7 93.3-61.2 132-0.831 1.06-0.831 1.06-1.68 2.13-1.7 2.15-3.41 4.29-5.13 6.43-0.515 0.643-1.03 1.29-1.56 1.95-3.09 3.79-6.35 7.27-9.85 10.7-1.83 1.86-3.53 3.79-5.23 5.77-3.53 4.09-7.34 7.79-11.3 11.5-0.705 0.655-1.41 1.31-2.14 1.99-16.8 15.5-35.5 28.8-55.1 40.6-1.37 0.831-1.37 0.831-2.77 1.68-7.28 4.34-14.7 8.14-22.4 11.7-0.601 0.278-1.2 0.556-1.82 0.843-72.6 33.4-154 38.3-231 17.2-1.01-0.277-2.01-0.554-3.05-0.839-5.71-1.65-10.8-3.71-16-6.54 1.38-2 1.38-2 3-4h2v-2c1.41-1.18 2.83-2.35 4.27-3.49 2.45-2.14 4.41-4.61 6.43-7.15 0.428-0.447 0.856-0.895 1.3-1.36h2c0.33-0.99 0.66-1.98 1-3 1.94-2.19 1.94-2.19 4-4h2c0.223-0.514 0.446-1.03 0.676-1.56 3.36-6.2 7.7-12.5 14.3-15.4 6.83-0.424 13.5 2.19 20 4.16 4.76 1.32 9.56 1.98 14.5 2.59 1.38 0.177 1.38 0.177 2.78 0.357 72.5 8.94 146-11.8 203-56.6 9.56-7.58 18.3-16 26.9-24.6 0.661-0.656 1.32-1.31 2-1.99 0.612-0.614 1.22-1.23 1.85-1.86 0.547-0.548 1.09-1.1 1.66-1.66 1.41-1.42 1.41-1.42 2.3-3.43h2c0.219-0.523 0.438-1.05 0.664-1.59 1.84-3.33 4.29-6.12 6.71-9.04 38.3-47.2 57.8-108 57.9-168 6.75e-4 -0.762 0.00135-1.52 0.00204-2.31-0.0893-64.1-23.5-126-65.3-175-0.754-0.884-1.51-1.77-2.29-2.68-9.97-11.4-20.7-22.1-32.7-31.3-0.956-0.773-1.91-1.55-2.9-2.34-8.54-6.8-17.6-12.6-26.9-18.3-1.87-1.14-3.72-2.3-5.58-3.46-25.5-15.4-54.5-25.1-83.6-30.9-0.733-0.153-1.47-0.306-2.22-0.464-67.7-14-140 2.54-198 39.5-11.1 7.35-21.4 15.5-31.3 24.5-1.63 1.47-3.27 2.92-4.91 4.37-16.7 14.8-31 32.3-42.8 51.2-0.386 0.617-0.773 1.23-1.17 1.87-38 61.2-50.7 134-35.8 204 0.2 0.811 0.4 1.62 0.605 2.46 0.192 0.781 0.384 1.56 0.582 2.37 0.269 1.03 0.269 1.03 0.543 2.08 0.467 3.63-0.0838 6.25-2.32 9.18-1.03 1.02-1.03 1.02-2.07 2.07-0.774 0.78-1.55 1.56-2.35 2.36-0.842 0.827-1.68 1.65-2.55 2.51-0.859 0.859-1.72 1.72-2.6 2.6-1.82 1.81-3.64 3.62-5.47 5.42-2.81 2.77-5.59 5.55-8.38 8.34-1.77 1.76-3.53 3.51-5.3 5.26-0.84 0.837-1.68 1.67-2.54 2.54-0.777 0.765-1.55 1.53-2.36 2.32-0.685 0.678-1.37 1.36-2.08 2.05-1.71 1.45-1.71 1.45-3.71 1.45-3-7.09-5.39-14.2-7.44-21.6-0.3-1.08-0.6-2.17-0.909-3.28-22.8-84.1-11.9-174 31.3-250 17.9-30.7 41.6-60.6 69-83.4 0.521-0.44 1.04-0.88 1.58-1.33 14.9-12.5 30.6-24 47.5-33.6 1.95-1.12 3.89-2.27 5.82-3.43 47-27.6 103-40.8 157-40.3z" fill="#000002"/>
<path transform="translate(1117 396)" d="m0 0c6.32 4.53 11.6 10.4 17 16 1.26 1.28 2.53 2.57 3.8 3.85 2.79 2.83 5.57 5.67 8.35 8.52 3.82 3.89 7.7 7.72 11.6 11.5 4.79 4.71 9.56 9.43 14.3 14.2 2.87 2.85 5.75 5.69 8.64 8.53 2.81 2.76 5.61 5.53 8.4 8.3 1.06 1.05 2.12 2.09 3.19 3.13 7.03 6.86 13.2 13.5 15.1 23.4-0.166 12.9-5.67 20.2-14.2 29.3-2.43 2.27-2.43 2.27-4.43 2.27-0.33 0.99-0.66 1.98-1 3-1.64 1.37-3.31 2.69-5 4-1.68 1.65-3.35 3.32-5 5-11 11-11 11-13.7 13.7-2.39 2.35-2.39 2.35-4.61 5.21-1.87 2.29-3.84 4.18-6.11 6.08-5.22 4.52-10.1 9.4-15 14.3-1.58 1.59-3.17 3.17-4.75 4.75-1.01 1.01-2.02 2.02-3.03 3.03-1.36 1.36-1.36 1.36-2.75 2.75-2.13 2.04-2.13 2.04-3.1 4.23h-2v2c-2.38 2.62-2.38 2.62-5 5h-2v2c-1.57 1.55-1.57 1.55-3.69 3.31-4.27 3.64-8.2 7.32-11.8 11.7-2.63 3.08-5.43 5.45-8.56 8-2.65 2.52-5.02 5.03-7.31 7.88-2.49 3.04-5.32 5.47-8.32 8-2.39 2.14-4.59 4.39-6.81 6.7-6.89 7.14-13 12-23.2 12.7-8.24-0.153-15.4-3.5-21.3-9.25v-2c-1.98-0.99-1.98-0.99-4-2v-2c-0.99-0.33-1.98-0.66-3-1-2.19-1.94-2.19-1.94-4-4v-2c-0.99-0.33-1.98-0.66-3-1-1.22-1.45-2.43-2.9-3.61-4.39-2.18-2.53-4.83-4.49-7.39-6.61-0.639-0.804-1.28-1.61-1.94-2.44-2.29-2.85-4.82-4.96-7.67-7.23-0.459-0.44-0.918-0.879-1.39-1.33v-2c-0.99-0.33-1.98-0.66-3-1-2.19-1.94-2.19-1.94-4-4v-2c-1.32-0.66-2.64-1.32-4-2v-2c-0.99-0.33-1.98-0.66-3-1v-2c-1.32-0.66-2.64-1.32-4-2v-2c-0.99-0.33-1.98-0.66-3-1-2.19-1.94-2.19-1.94-4-4v-2c-0.99-0.33-1.98-0.66-3-1-2.19-1.94-2.19-1.94-4-4v-2c-1.32-0.66-2.64-1.32-4-2v-2c-0.99-0.33-1.98-0.66-3-1-1.54-1.89-1.54-1.89-3.06-4.25-0.76-1.15-0.76-1.15-1.54-2.33-3.71-6.4-4.31-12.1-3.4-19.4 1.82-5.13 4.47-9.84 8-14h2c0.224-0.549 0.448-1.1 0.679-1.66 1.71-3.03 4-5.29 6.45-7.72 0.528-0.531 1.06-1.06 1.6-1.61 1.77-1.78 3.55-3.55 5.32-5.32 1.27-1.27 2.54-2.55 3.81-3.82 3.45-3.46 6.91-6.91 10.4-10.4 3.62-3.61 7.23-7.23 10.8-10.9 6.08-6.08 12.2-12.2 18.2-18.2 7.02-7.01 14-14 21.1-21.1 6.02-6.03 12.1-12.1 18.1-18.1 3.6-3.6 7.2-7.2 10.8-10.8 3.38-3.39 6.77-6.78 10.2-10.2 1.24-1.24 2.48-2.48 3.72-3.72 1.7-1.7 3.4-3.4 5.1-5.09 0.726-0.733 0.726-0.733 1.47-1.48 10.7-10.6 23.7-16 37.6-7.98zm-99.3 147c-4.75 7.48-6.31 15.4-4.57 24.1 2.5 7.77 8.48 14 15.6 17.9 7.34 2.72 14.3 2.95 21.6 0.223 6.83-3.52 12.1-8.55 15-15.7 2.67-9.14 1.76-16-2.62-24.5-4.14-6.27-9.97-9.66-17-12-11.2-1.02-20.4 1.39-28 10z" fill="#000002"/>
<path transform="translate(719,765)" d="m0 0c3.79 1.76 6.11 3.96 9 7 2.58 2.65 5.13 5.1 8 7.44 3.07 2.63 5.42 5.46 8 8.56 0.99 0.825 1.98 1.65 3 2.5 3.17 2.64 5.42 5.3 8 8.5 0.983 1.02 1.97 2.03 3 3-1.39 3.14-3.01 5.25-5.44 7.67-0.701 0.7-1.4 1.4-2.12 2.12-0.755 0.745-1.51 1.49-2.29 2.26-0.774 0.771-1.55 1.54-2.35 2.34-2.47 2.46-4.95 4.91-7.43 7.37-1.68 1.67-3.35 3.34-5.03 5-4.11 4.09-8.22 8.17-12.3 12.2-5.15-4.31-9.96-8.82-14.7-13.6-0.7-0.702-1.4-1.4-2.12-2.13-2.21-2.22-4.42-4.44-6.63-6.66-1.51-1.51-3.02-3.03-4.53-4.54-3.68-3.69-7.36-7.39-11-11.1 4.24-5.07 8.68-9.81 13.4-14.5 0.68-0.678 1.36-1.36 2.06-2.06 2.15-2.14 4.3-4.28 6.45-6.42 1.47-1.46 2.93-2.92 4.4-4.38 3.57-3.56 7.15-7.12 10.7-10.7z" fill="#000002"/>
<path transform="translate(566,1071)" d="m0 0c3.14 1.39 5.25 3.01 7.67 5.44 1.05 1.05 1.05 1.05 2.12 2.12 0.745 0.755 1.49 1.51 2.26 2.29 0.771 0.774 1.54 1.55 2.34 2.35 2.46 2.47 4.91 4.95 7.37 7.43 1.67 1.68 3.34 3.35 5 5.03 4.09 4.11 8.17 8.22 12.2 12.3-1.39 3.14-3.01 5.25-5.44 7.67-0.701 0.7-1.4 1.4-2.12 2.12-0.755 0.745-1.51 1.49-2.29 2.26-0.774 0.771-1.55 1.54-2.35 2.34-2.47 2.46-4.95 4.91-7.43 7.37-1.68 1.67-3.35 3.34-5.03 5-4.11 4.09-8.22 8.17-12.3 12.2-3.24-1.08-3.71-1.58-5.75-4.12-5.96-7.03-12.7-13.4-19.2-19.9-1.37-1.36-2.73-2.72-4.1-4.08-3.32-3.31-6.64-6.61-9.97-9.92 4.24-5.07 8.68-9.81 13.4-14.5 0.68-0.678 1.36-1.36 2.06-2.06 2.15-2.14 4.3-4.28 6.45-6.42 1.47-1.46 2.93-2.92 4.4-4.38 3.57-3.56 7.15-7.12 10.7-10.7z" fill="#000002"/>
<path transform="translate(719,918)" d="m0 0c3.96 1.83 6.66 4.41 9.68 7.49 0.537 0.54 1.07 1.08 1.63 1.64 1.71 1.72 3.42 3.46 5.13 5.19 1.14 1.15 2.29 2.31 3.43 3.46 2.11 2.13 4.22 4.26 6.33 6.4 2.59 2.62 5.19 5.23 7.8 7.83l5 5c-1.39 3.14-3.01 5.25-5.44 7.67-0.701 0.7-1.4 1.4-2.12 2.12-0.755 0.745-1.51 1.49-2.29 2.26-0.774 0.771-1.55 1.54-2.35 2.34-2.47 2.46-4.95 4.91-7.43 7.37-1.68 1.67-3.35 3.34-5.03 5-4.11 4.09-8.22 8.17-12.3 12.2-5.15-4.31-9.96-8.82-14.7-13.6-0.7-0.702-1.4-1.4-2.12-2.13-2.21-2.22-4.42-4.44-6.63-6.66-1.51-1.51-3.02-3.03-4.53-4.54-3.68-3.69-7.36-7.39-11-11.1 4.24-5.07 8.68-9.81 13.4-14.5 0.68-0.678 1.36-1.36 2.06-2.06 2.15-2.14 4.3-4.28 6.45-6.42 1.47-1.46 2.93-2.92 4.4-4.38 3.57-3.56 7.15-7.12 10.7-10.7z" fill="#000002"/>
<path transform="translate(566,918)" d="m0 0c3.14 1.39 5.25 3.01 7.67 5.44 1.05 1.05 1.05 1.05 2.12 2.12 0.745 0.755 1.49 1.51 2.26 2.29 0.771 0.774 1.54 1.55 2.34 2.35 2.46 2.47 4.91 4.95 7.37 7.43 1.67 1.68 3.34 3.35 5 5.03 4.09 4.11 8.17 8.22 12.2 12.3-1.39 3.14-3.01 5.25-5.44 7.67-0.701 0.7-1.4 1.4-2.12 2.12-0.755 0.745-1.51 1.49-2.29 2.26-0.774 0.771-1.55 1.54-2.35 2.34-2.47 2.46-4.95 4.91-7.43 7.37-1.68 1.67-3.35 3.34-5.03 5-4.11 4.09-8.22 8.17-12.3 12.2-5.15-4.31-9.96-8.82-14.7-13.6-0.7-0.702-1.4-1.4-2.12-2.13-2.21-2.22-4.42-4.44-6.63-6.66-1.51-1.51-3.02-3.03-4.53-4.54-3.68-3.69-7.36-7.39-11-11.1 4.24-5.07 8.68-9.81 13.4-14.5 0.68-0.678 1.36-1.36 2.06-2.06 2.15-2.14 4.3-4.28 6.45-6.42 1.47-1.46 2.93-2.92 4.4-4.38 3.57-3.56 7.15-7.12 10.7-10.7z" fill="#000002"/>
<path transform="translate(872,765)" d="m0 0c3.8 1.57 6.17 3.95 9.03 6.87 0.471 0.476 0.942 0.952 1.43 1.44 1.5 1.52 2.99 3.04 4.48 4.57 1.49 1.52 2.98 3.03 4.47 4.54 1.36 1.38 2.71 2.76 4.07 4.14 2.4 2.32 4.89 4.38 7.52 6.44 1.31 1.3 2.58 2.63 3.81 4 0.605 0.66 1.21 1.32 1.83 2 1.36 2 1.36 2 1.36 6-1.37 1.85-1.37 1.85-3.3 3.76-0.721 0.72-1.44 1.44-2.18 2.18-0.787 0.767-1.57 1.53-2.39 2.32-0.799 0.793-1.6 1.59-2.42 2.4-2.56 2.54-5.13 5.06-7.7 7.58-1.74 1.72-3.47 3.43-5.2 5.15-4.26 4.21-8.52 8.41-12.8 12.6-5.15-4.31-9.96-8.82-14.7-13.6-0.7-0.702-1.4-1.4-2.12-2.13-2.21-2.22-4.42-4.44-6.63-6.66-1.51-1.51-3.02-3.03-4.53-4.54-3.68-3.69-7.36-7.39-11-11.1 0.951-1.17 1.91-2.34 2.88-3.5 0.801-0.975 0.801-0.975 1.62-1.97 0.498-0.505 0.995-1.01 1.51-1.53h2c0.33-0.99 0.66-1.98 1-3h2c0.233-0.557 0.465-1.11 0.705-1.69 1.63-2.91 3.66-4.93 6.01-7.3 1.4-1.4 1.4-1.4 2.82-2.83 0.485-0.481 0.97-0.962 1.47-1.46 1.49-1.48 2.97-2.97 4.44-4.46 0.932-0.929 1.86-1.86 2.82-2.82 0.857-0.854 1.71-1.71 2.6-2.59 2.12-1.86 2.12-1.86 4.12-1.86 0.33-0.99 0.66-1.98 1-3z" fill="#000002"/>
</svg>
