<?xml version="1.0" encoding="UTF-8"?>
<svg version="1.1" viewBox="0 0 1600 1600" width="1280" height="1280" xmlns="http://www.w3.org/2000/svg">
<path transform="translate(674 170)" d="m0 0c2.93 2.25 5.51 4.67 8.01 7.39 1.57 1.72 1.57 1.72 4.44 3.48v2h2c1.55 1.61 1.55 1.61 3.31 3.75 1.99 2.35 3.77 4.32 6.19 6.25 2.22 1.78 3.82 3.46 5.65 5.61 3.8 4.39 7.84 8.49 12 12.6 0.69 0.685 1.38 1.37 2.09 2.08 1.33 1.32 2.66 2.65 4 3.97 2.27 2.25 4.53 4.51 6.79 6.77 0.608 0.608 1.22 1.22 1.84 1.84 22.2 22.2 22.2 22.2 24.4 24.4 2.63 2.63 5.26 5.26 7.9 7.88 1.04 1.03 2.07 2.07 3.11 3.1 0.55 0.548 1.1 1.1 1.67 1.66 3.06 3.06 6.13 6.11 9.19 9.17 0.659 0.657 1.32 1.31 2 1.99 30.3 30.2 60.6 60.5 90.9 90.8 4.38 4.37 8.76 8.75 13.1 13.1 0.872 0.871 1.74 1.74 2.64 2.64 14.1 14.1 28.3 28.2 42.4 42.3 14.5 14.5 29 29 43.5 43.5 8.94 8.93 17.9 17.9 26.8 26.8 6.14 6.12 12.3 12.2 18.4 18.4 3.53 3.53 7.07 7.07 10.6 10.6 3.25 3.23 6.49 6.47 9.72 9.71 1.17 1.17 2.34 2.33 3.51 3.49 12.3 12.2 21.8 25.3 22.5 43.3-0.237 15.8-6.7 27.8-17.8 38.7-2.43 2.46-4.32 4.91-6.16 7.83-4.4 6.35-9.49 11.3-17.3 12.8-11.6 1.61-23.4 1.12-35 0.92-5.38-0.0736-10.8-0.0539-16.2-0.0457-9.32 0.00156-18.6-0.055-28-0.151-13.5-0.139-27-0.188-40.5-0.214-21.9-0.0447-43.9-0.159-65.8-0.32-21.2-0.155-42.5-0.283-63.7-0.369-1.31-0.00533-2.61-0.0107-3.96-0.0162-13-0.0526-26-0.101-39.1-0.149-5.08-0.0189-10.2-0.0381-15.2-0.0574-2.51-0.00953-5.02-0.019-7.53-0.0284-15.9-0.0601-31.8-0.141-47.7-0.247-8.04-0.0533-16.1-0.0999-24.1-0.145-5.31-0.0303-10.6-0.0643-15.9-0.108-26.2-0.288-26.2-0.288-52.3 0.853-1.49 0.109-1.49 0.109-3.01 0.221-23 2.06-43.3 14.3-58.3 31.6-16.5 20.3-19 44.4-18.9 69.6 7.27e-4 1.89 5.49e-4 3.78-4.48e-4 5.67-2.18e-4 4.08 0.00588 8.17 0.017 12.2 0.018 6.64 0.0221 13.3 0.0247 19.9 5e-3 9.64 0.0164 19.3 0.0313 28.9 0.0228 15.2 0.0225 30.5 0.0181 45.7-0.00123 5.22-0.00237 10.4-0.00351 15.7-2.98e-4 1.3-5.95e-4 2.61-9.02e-4 3.95-0.0032 14.8-0.00298 29.6-2.59e-4 44.4 1.17e-4 0.676 2.34e-4 1.35 3.55e-4 2.05 0.00396 22 0.0288 43.9 0.0623 65.9 0.0353 23.3 0.0407 46.5 0.0164 69.8-0.0134 13.9-0.00201 27.8 0.0411 41.8 0.0274 9.53 0.0259 19.1 0.00129 28.6-0.0133 5.5-0.0133 11 0.0213 16.5 0.0314 5.03 0.0263 10.1-0.00842 15.1-0.00602 1.82 0.00161 3.65 0.024 5.47 0.157 13.6 0.157 13.6-2.76 17.3-2.09 1.35-3.89 2.14-6.26 2.85-1.05 0.438-2.09 0.877-3.17 1.33-14.7 4.49-28.5 5.15-42.6-1.95-11.5-7.04-20.9-17.8-30.4-27.4-1.52-1.52-3.04-3.04-4.56-4.55-4.16-4.15-8.32-8.31-12.5-12.5-4.49-4.49-8.99-8.97-13.5-13.5-10.3-10.3-20.7-20.6-31-30.9-5.1-5.1-10.2-10.2-15.3-15.3-17.5-17.5-35-34.9-52.5-52.4-1.1-1.1-2.19-2.19-3.29-3.29-0.543-0.543-1.09-1.09-1.65-1.65-2.75-2.75-5.51-5.5-8.26-8.26-0.546-0.546-1.09-1.09-1.66-1.65-17.7-17.7-35.5-35.4-53.2-53.1-18.8-18.7-37.5-37.5-56.3-56.2-2.06-2.06-4.12-4.12-6.18-6.18-0.761-0.76-0.761-0.76-1.54-1.54-8.15-8.15-16.3-16.3-24.5-24.4-8.2-8.18-16.4-16.4-24.6-24.6-4.43-4.44-8.87-8.87-13.3-13.3-4.07-4.05-8.13-8.12-12.2-12.2-1.47-1.47-2.94-2.93-4.41-4.39-13.3-13.2-23.8-25.8-24.1-45.6 0.193-14.4 5.46-26.7 15.7-36.9l2.02-1.9c1.99-1.84 1.99-1.84 4.17-4.73 0.536-0.66 1.07-1.32 1.62-2h2v-2c1.61-1.55 1.61-1.55 3.75-3.31 3.16-2.68 5.76-5.36 8.25-8.69 1.62-1.81 1.62-1.81 3-3h2v-2c1.61-1.55 1.61-1.55 3.75-3.31 2.35-1.99 4.32-3.77 6.25-6.19 2.41-3.01 5.17-5.3 8.1-7.79 2.25-2.03 4.03-4.34 5.9-6.71h2v-2c1.64-1.36 3.32-2.69 5-4 2.67-2.53 5.06-5.08 7.38-7.94 2.37-2.91 5.05-5.23 7.93-7.63 3.49-2.95 6.53-6.19 9.38-9.75 0.763-0.887 1.53-1.77 2.31-2.69h2c0.33-0.99 0.66-1.98 1-3h2v-2c1.61-1.55 1.61-1.55 3.75-3.31 3.17-2.68 5.68-5.43 8.25-8.69h2c0.33-0.99 0.66-1.98 1-3h2v-2c1.65-1.35 3.32-2.68 5-4 0.66-0.99 1.32-1.98 2-3h2c0.33-0.99 0.66-1.98 1-3h2v-2c1.37-1.62 1.37-1.62 3-3h2v-2c2.81-3.13 5.28-5.14 9-7 0.33-0.99 0.66-1.98 1-3h2v-2c1.37-1.62 1.37-1.62 3-3h2c0.34-0.835 0.34-0.835 0.688-1.69 1.69-2.97 3.78-5.03 6.31-7.31h2c0.33-0.99 0.66-1.98 1-3h2v-2c1.37-1.62 1.37-1.62 3-3h2c0.33-0.99 0.66-1.98 1-3 1.65-1.36 3.31-2.69 5-4 0.33-0.66 0.66-1.32 1-2h2c0.33-0.99 0.66-1.98 1-3h2c0.33-0.99 0.66-1.98 1-3h2v-2h2l2-4h2c0.33-0.99 0.66-1.98 1-3h2v-2h2c0.33-0.99 0.66-1.98 1-3h2c0.33-0.99 0.66-1.98 1-3h2c0.248-0.619 0.495-1.24 0.75-1.88 1.48-2.51 2.69-2.89 5.25-4.12 0.33-0.99 0.66-1.98 1-3h2v-2c1.37-1.62 1.37-1.62 3-3h2c0.34-0.835 0.34-0.835 0.688-1.69 1.69-2.97 3.78-5.03 6.31-7.31h2c0.33-0.99 0.66-1.98 1-3h2v-2h2c0.33-0.99 0.66-1.98 1-3h2c0.34-0.835 0.34-0.835 0.688-1.69 1.69-2.97 3.78-5.03 6.31-7.31h2c0.33-0.99 0.66-1.98 1-3h2c0.268-0.639 0.536-1.28 0.812-1.94 1.19-2.06 1.19-2.06 4.19-3.06l0.875-1.75c1.52-3.04 3.61-4.99 6.12-7.25h2l1-3h2l0.688-1.67c1.7-3.02 3.86-5.14 6.31-7.58l2.69-2.7c2.31-2.05 2.31-2.05 4.31-2.05l1-3h2c0.34-0.835 0.34-0.835 0.688-1.69 1.69-2.97 3.78-5.03 6.31-7.31h2l1-3h2v-2h2l0.75-1.73c1.44-2.62 3.13-4.41 5.25-6.52 0.701-0.706 1.4-1.41 2.12-2.14 1.88-1.61 1.88-1.61 3.88-1.61l1-3h2l0.688-1.67c1.7-3.02 3.86-5.14 6.31-7.58l2.69-2.7c2.31-2.05 2.31-2.05 4.31-2.05 0.383-0.87 0.383-0.87 0.773-1.76 1.35-2.47 2.86-4.14 4.85-6.13 0.706-0.709 1.41-1.42 2.14-2.15l2.23-2.21c0.737-0.745 1.47-1.49 2.23-2.26 0.706-0.704 1.41-1.41 2.14-2.13 0.647-0.645 1.29-1.29 1.96-1.95 1.66-1.41 1.66-1.41 3.66-1.41 0.227-0.552 0.454-1.1 0.688-1.67 1.7-3.02 3.86-5.14 6.31-7.58l2.69-2.7c2.31-2.05 2.31-2.05 4.31-2.05 0.258-0.583 0.517-1.17 0.783-1.77 1.32-2.42 2.75-4.02 4.69-5.96 0.724-0.73 1.45-1.46 2.19-2.21 0.799-0.795 1.6-1.59 2.42-2.41 0.846-0.851 1.69-1.7 2.56-2.58 2.35-2.36 4.7-4.72 7.06-7.07 2.54-2.54 5.07-5.09 7.61-7.63 4.97-4.99 9.95-9.97 14.9-14.9 4.05-4.05 8.1-8.1 12.1-12.2 11.5-11.5 23-23 34.5-34.5 0.62-0.62 1.24-1.24 1.88-1.88 0.62-0.62 1.24-1.24 1.88-1.88 10-10 20.1-20.1 30.1-30.1 10.3-10.3 20.6-20.7 30.9-31 5.79-5.79 11.6-11.6 17.4-17.4 4.92-4.94 9.85-9.88 14.8-14.8 2.52-2.51 5.03-5.02 7.53-7.54 23.6-23.8 51.5-44.2 84.2-22.1zm66.4 214c-0.562 0.568-1.12 1.14-1.7 1.72-0.598 0.596-1.2 1.19-1.81 1.81-2.02 2.01-4.03 4.03-6.03 6.05-1.44 1.44-2.88 2.88-4.32 4.32-3.92 3.92-7.83 7.84-11.7 11.8-4.08 4.1-8.17 8.19-12.3 12.3-7.75 7.75-15.5 15.5-23.2 23.3-8.81 8.83-17.6 17.7-26.4 26.5-18.1 18.2-36.3 36.3-54.4 54.5 1.45 3.34 3.28 5.53 5.85 8.09 0.802 0.805 1.6 1.61 2.43 2.44 0.881 0.874 1.76 1.75 2.67 2.65 0.927 0.927 1.85 1.85 2.81 2.81 2.54 2.54 5.08 5.07 7.63 7.6 2.66 2.65 5.32 5.3 7.97 7.96 5.03 5.02 10.1 10 15.1 15.1 5.73 5.71 11.5 11.4 17.2 17.1 11.8 11.8 23.6 23.5 35.4 35.3 4.13-1.63 6.89-4.61 9.95-7.71 0.591-0.59 1.18-1.18 1.79-1.79 1.98-1.98 3.96-3.97 5.93-5.95 1.42-1.42 2.84-2.84 4.26-4.26 3.86-3.85 7.7-7.72 11.6-11.6 4.02-4.03 8.05-8.06 12.1-12.1 7.63-7.63 15.2-15.3 22.9-22.9 8.67-8.7 17.4-17.4 26-26.1 17.9-17.9 35.7-35.8 53.5-53.6-1.45-3.33-3.27-5.52-5.83-8.09-0.799-0.805-1.6-1.61-2.42-2.44-0.878-0.874-1.76-1.75-2.66-2.65-0.924-0.927-1.85-1.85-2.8-2.81-2.53-2.54-5.07-5.07-7.61-7.6-2.65-2.65-5.3-5.3-7.95-7.96-4.45-4.45-8.9-8.9-13.4-13.3-5.16-5.15-10.3-10.3-15.4-15.5-4.42-4.42-8.83-8.84-13.3-13.3-2.64-2.64-5.28-5.28-7.92-7.92-2.94-2.94-5.88-5.88-8.83-8.81-0.878-0.882-1.76-1.76-2.66-2.67-0.799-0.794-1.6-1.59-2.42-2.4-0.696-0.695-1.39-1.39-2.11-2.11-3.53-3.02-4.99-0.44-7.8 2.35z" fill="#000002"/>
<path transform="translate(671 698)" d="m0 0c1.38-0.00135 2.76-0.00313 4.14-0.00531 3.78-0.00471 7.56-0.00324 11.3-7.22e-4 4.11 0.00164 8.23-0.00251 12.3-0.00591 7.21-0.00515 14.4-0.00657 21.6-0.00554 10.7 0.00153 21.4-0.00264 32.2-0.00787 20.3-0.00967 40.5-0.0125 60.8-0.0131 15.6-4.6e-4 31.3-0.00252 46.9-0.0057 4.5-8.98e-4 9.01-0.00179 13.5-0.00267 1.12-2.21e-4 2.24-4.42e-4 3.39-6.7e-4 31.5-0.00615 63-0.0101 94.5-0.00966 1.78 2.34e-5 1.78 2.34e-5 3.6 4.72e-5 6.02 8.31e-5 12 1.82e-4 18.1 2.85e-4 1.2 1.99e-5 2.39 3.99e-5 3.62 6.04e-5 2.42 4.04e-5 4.83 8.22e-5 7.25 1.25e-4 37.6 6.13e-4 75.2-0.00689 113-0.0206 42.2-0.0154 84.5-0.024 127-0.023 4.51 7.46e-5 9.01 1.23e-4 13.5 1.54e-4 1.66 1.75e-5 1.66 1.75e-5 3.36 3.53e-5 17.8 3.08e-5 35.7-0.00635 53.5-0.015 17.9-0.00848 35.9-0.00946 53.8-0.00289 10.7 0.00369 21.3 0.00187 32-0.00794 7.12-6e-3 14.2-0.0047 21.4 0.00247 4.05 0.00388 8.11 0.00467 12.2-0.00346 3.7-0.00734 7.4-0.00527 11.1 0.00392 1.94 0.0025 3.87-0.00469 5.81-0.0124 12.6 0.0506 25.2 1.12 37.2 5.33 0.885 0.306 1.77 0.612 2.68 0.927 28.4 10.2 50.1 31.4 63.1 58.4 9.27 20 9.99 41 9.95 62.7 0.00303 2.19 0.00692 4.39 0.0116 6.58 0.0102 5.99 0.00811 12 0.00382 18-0.00248 6.48 0.00656 13 0.014 19.4 0.0131 12.7 0.0145 25.3 0.0122 38-0.00184 10.3-6.45e-5 20.6 0.00422 30.9 6.02e-4 1.48 0.0012 2.97 0.0018 4.45 9.07e-4 2.24 0.00182 4.47 0.00273 6.71 0.00842 20.8 0.0128 41.5 0.00859 62.3-1.56e-4 0.782-3.13e-4 1.56-4.74e-4 2.37-8.06e-4 3.96-0.00165 7.92-0.00251 11.9-1.71e-4 0.787-3.42e-4 1.57-5.18e-4 2.38-3.47e-4 1.59-6.95e-4 3.18-0.00105 4.77-0.00536 24.8 0.00257 49.5 0.021 74.3 0.0207 27.9 0.0314 55.7 0.0274 83.6-3.95e-4 2.97-7.57e-4 5.95-0.0011 8.92-9.07e-5 0.732-1.81e-4 1.46-2.75e-4 2.22-0.00116 11 0.00546 22 0.0161 33.1 0.0121 12.5 0.0133 25.1 0.00121 37.6-0.00588 6.39-0.00702 12.8 5e-3 19.2 0.0109 5.86 0.0077 11.7-0.00626 17.6-0.00263 2.11-3.19e-4 4.22 0.00774 6.33 0.109 30.7-5.31 60.8-26.4 84.4-0.663 0.804-1.33 1.61-2.01 2.44-12.5 14.7-28.6 24.6-46.7 30.9-0.931 0.334-1.86 0.668-2.82 1.01-18.7 6.16-39.1 4.9-58.6 4.87-4.08-0.00512-8.16 0.00147-12.2 0.00649-7.13 0.00719-14.3 0.00702-21.4 0.00191-10.6-0.00759-21.2-0.00368-31.8 0.00242-18.9 0.0105-37.9 0.00963-56.8 0.00384-16.6-0.00504-33.2-0.00634-49.7-0.00395-1.1 1.53e-4 -2.2 3.06e-4 -3.34 4.63e-4 -4.47 6.23e-4 -8.94 0.00126-13.4 0.00192-41.9 0.00611-83.8 5.77e-4 -126-0.0102-37.2-0.00949-74.4-0.00864-112 9.22e-4 -41.8 0.0107-83.7 0.015-125 0.00878-4.46-6.41e-4 -8.92-0.00127-13.4-0.00189-1.1-1.58e-4 -2.2-3.16e-4 -3.33-4.79e-4 -16.6-0.00227-33.1 3.81e-4 -49.7 0.00544-18.8 0.00572-37.7 0.00428-56.5-0.00656-10.5-0.00586-21.1-0.00627-31.6 0.00129-7.05 0.0045-14.1 0.00167-21.1-0.00701-4.01-0.00474-8.02-0.00642-12 8.12e-4 -41.2 0.0688-41.2 0.0688-56.3-5.39-0.876-0.306-1.75-0.613-2.65-0.928-28.7-10.4-50.9-31.4-63.9-58.9-7.26-16.1-9.96-33-9.92-50.5-0.00175-0.899-0.00351-1.8-0.00531-2.73-0.00463-3-0.0022-6 2.34e-4 -9-0.00187-2.18-0.00417-4.36-0.00687-6.53-0.00611-5.97-0.00599-11.9-0.00481-17.9 2.04e-4 -6.45-0.00532-12.9-0.0101-19.3-0.00852-12.6-0.0111-25.3-0.0116-37.9-4.6e-4 -10.3-0.00252-20.5-0.0057-30.8-8.98e-4 -2.96-0.00179-5.92-0.00267-8.88-2.21e-4 -0.736-4.42e-4 -1.47-6.7e-4 -2.23-0.00615-20.7-0.0101-41.4-0.00966-62.1 1.56e-5 -0.78 3.12e-5 -1.56 4.72e-5 -2.36 8.31e-5 -3.95 1.82e-4 -7.9 2.85e-4 -11.9 1.99e-5 -0.785 3.99e-5 -1.57 6.04e-5 -2.38 4.04e-5 -1.59 8.22e-5 -3.17 1.25e-4 -4.76 6.12e-4 -24.7-0.00689-49.3-0.0206-74-0.0154-27.7-0.024-55.5-0.023-83.2 7.46e-5 -2.96 1.23e-4 -5.92 1.54e-4 -8.88 1.17e-5 -0.729 2.33e-5 -1.46 3.53e-5 -2.21 3.07e-5 -11.7-0.00634-23.4-0.015-35.1-0.0085-11.8-0.00928-23.6-0.00289-35.3 0.00326-6.37 0.00334-12.7-0.00535-19.1-0.00789-5.84-0.00641-11.7 0.00228-17.5 0.00153-2.1-2.6e-4 -4.21-0.00586-6.31-0.0634-25.5 2.62-47.5 15.3-70.1 0.816-1.46 0.816-1.46 1.65-2.95 13.8-23.1 36.6-40.5 62.4-48 1.04-0.306 2.08-0.611 3.15-0.926 11.1-3.02 22.2-3.22 33.7-3.2zm-51.8 67.2c-19.6 23.2-17.3 49.8-17.2 78.4 0.00257 3.51 1.75e-4 7.02-0.00139 10.5-0.0018 5.87 5.44e-4 11.7 0.00534 17.6 0.00548 6.79 0.00364 13.6-0.00183 20.4-0.00453 5.85-0.00518 11.7-0.00256 17.6 0.00156 3.48 0.00177 6.97-0.00154 10.5-0.00341 3.86 0.00131 7.73 0.0069 11.6-0.00202 1.16-0.00405 2.31-0.00613 3.5 0.00423 1.57 0.00423 1.57 0.00854 3.16 3.77e-4 0.912 7.54e-4 1.82 0.00114 2.76-0.103 2.05-0.103 2.05 1.13 3.06 1.99 0.0982 3.99 0.124 5.98 0.124 1.97 0.00337 1.97 0.00337 3.97 0.00681 1.48-0.00257 2.95-0.00522 4.43-0.00796 1.56 7.39e-4 3.12 0.00192 4.67 0.0035 4.32 0.00309 8.64-1.23e-4 13-0.00428 4.69-0.00342 9.37-0.00107 14.1 5.77e-4 8.23 0.00208 16.5 4.19e-4 24.7-0.00364 12.2-0.00602 24.5-0.00634 36.7-0.00546 20.6 0.00132 41.2-0.00204 61.7-0.00802 20.4-0.00591 40.8-0.00976 61.1-0.0109 1.27-6.87e-5 2.53-1.37e-4 3.84-2.08e-4 6.43-3.38e-4 12.9-6.4e-4 19.3-9.27e-4 45.6-0.0021 91.1-0.00884 137-0.0183 11-0.00229 22.1-0.00457 33.1-0.00677 0.685-1.37e-4 1.37-2.74e-4 2.08-4.15e-4 31.8-0.00634 63.7-0.0101 95.5-0.0131 2.07-1.98e-4 4.13-3.97e-4 6.2-5.97e-4 13.7-0.00132 27.4-0.00259 41.1-0.00384 27.9-0.00254 55.8-0.00536 83.7-0.00835 1.92-2.06e-4 1.92-2.06e-4 3.89-4.16e-4 85.7-0.00921 171-0.0251 257-0.0419 0.0469-17.6 0.0821-35.2 0.104-52.8 0.0103-8.18 0.0243-16.4 0.0473-24.5 0.02-7.13 0.0329-14.3 0.0373-21.4 0.00259-3.77 0.0086-7.54 0.0233-11.3 0.0138-3.56 0.0177-7.12 0.0148-10.7 7.98e-4 -1.9 0.0115-3.81 0.0226-5.71-0.0486-20.7-4.6-38.9-19.1-54.5-16-15.3-34.6-18.3-55.8-18.2-1.36-0.00135-2.72-0.00313-4.08-0.00531-3.73-0.00471-7.46-0.00323-11.2-7.22e-4 -4.06 0.00164-8.12-0.00251-12.2-0.00591-7.11-0.00515-14.2-0.00657-21.3-0.00554-10.6 0.00153-21.2-0.00264-31.7-0.00787-20-0.00967-40-0.0125-60-0.0131-15.4-4.6e-4 -30.9-0.00252-46.3-0.0057-4.44-8.98e-4 -8.89-0.00179-13.3-0.00267-1.1-2.21e-4 -2.21-4.42e-4 -3.35-6.7e-4 -31.1-0.00615-62.2-0.0101-93.2-0.00966-1.76 2.34e-5 -1.76 2.34e-5 -3.55 4.72e-5 -5.94 8.31e-5 -11.9 1.82e-4 -17.8 2.85e-4 -1.77 2.99e-5 -1.77 2.99e-5 -3.57 6.04e-5 -2.38 4.04e-5 -4.77 8.22e-5 -7.15 1.25e-4 -37.1 6.13e-4 -74.2-0.0069-111-0.0206-41.7-0.0154-83.4-0.024-125-0.023-4.45 7.46e-5 -8.89 1.23e-4 -13.3 1.54e-4 -1.09 1.17e-5 -2.19 2.33e-5 -3.32 3.53e-5 -17.6 3.08e-5 -35.2-0.00636-52.9-0.015-17.7-0.00847-35.4-0.00947-53.1-0.00289-10.5 0.0037-21 0.00186-31.6-0.00794-7.03-0.00599-14.1-0.00471-21.1 0.00247-4 0.00389-8.01 0.00465-12-0.00346-3.65-0.00732-7.29-0.0053-10.9 0.00392-1.92 0.00251-3.84-0.00471-5.75-0.0124-20.2 0.0825-39 4.9-53.1 20.3zm-16.1 303c-0.853 5.75-0.853 5.75-1.13 11.4-0.00261 0.806-0.00522 1.61-0.0079 2.44 0.00223 0.865 0.00446 1.73 0.00676 2.62-0.00156 0.936-0.00312 1.87-0.00473 2.84-0.00398 3.13-8.32e-4 6.25 0.00232 9.38-0.00136 2.25-0.00314 4.49-0.00531 6.74-0.00456 6.1-0.00279 12.2 3.79e-4 18.3 0.00254 6.41 1.81e-4 12.8-0.00139 19.2-0.00194 11.5 0.00117 23 0.00626 34.5 0.00444 10.3 0.00371 20.7-9.19e-4 31-0.0054 12.1-0.00732 24.1-0.00439 36.2 0.00154 6.37 0.00181 12.7-0.00154 19.1-0.0505 32.2-0.0505 32.2 0.508 64.5 0.0288 1.2 0.0575 2.39 0.0872 3.62 0.633 18.4 7.76 32.1 20.5 45.1 0.518 0.554 1.04 1.11 1.57 1.68 14.6 14.1 35 15.5 54.2 15.4 1.35 0.00105 2.7 0.00253 4.06 0.0044 3.7 0.00387 7.4 0.00157 11.1-0.00178 4.03-0.00255 8.06 7.27e-4 12.1 0.00324 7.06 0.00361 14.1 0.00351 21.2 9.53e-4 10.5-0.00379 21-0.00185 31.5 0.00121 18.7 0.00526 37.5 0.00481 56.2 0.00192 16.4-0.00252 32.8-0.00317 49.2-0.00198 1.63 1.15e-4 1.63 1.15e-4 3.3 2.31e-4 4.42 3.11e-4 8.83 6.3e-4 13.3 9.6e-4 41.4 0.00306 82.9 2.86e-4 124-0.0051 36.8-0.00474 73.6-0.00432 110 4.61e-4 41.4 0.00536 82.7 0.00748 124 0.00439 4.41-3.21e-4 8.82-6.34e-4 13.2-9.43e-4 1.09-7.91e-5 2.17-1.58e-4 3.29-2.4e-4 16.4-0.00114 32.8 1.92e-4 49.2 0.00272 18.6 0.00286 37.3 0.00214 55.9-0.00328 10.4-0.00294 20.9-0.00313 31.3 6.46e-4 6.97 0.00224 13.9 8.43e-4 20.9-0.0035 3.97-0.00238 7.94-0.0032 11.9 4.06e-4 3.62 0.00325 7.24 0.00183 10.9-0.00318 1.9-0.00147 3.8 0.00192 5.7 0.00555 22.3-0.0482 39.4-3.37 56.2-19 70.4-73.7 18.1-203 18.1-305h-913z" fill="#000002"/>
</svg>
